<?xml version="1.0" encoding="UTF-8"?>
<svg id="uuid-068c66cd-b218-4b82-949b-d147eb45980d" data-name="Calque 1" xmlns="http://www.w3.org/2000/svg" width="85.3" height="99.2" viewBox="0 0 85.3 99.2">
  <path d="M24.2,81.7c-2.2-16-18.1-19.4-22.5-34.5C-4.3,26.1,5.7,8.4,26.3,1.8c6.9-2.2,27-2.7,33.3.7s6.2,6,6.5,6.5c2.3,4.1,3.2,14.6,5.1,17.9s10.5,3.7,12.9,7.9c-.5,2.9-5,5.1-5.6,7.2s.8,5.4.3,6.4c-.8,1.6-5.6,2.6-5.5,6.5s8.5,3.5,11,3.5c.3,2.2-1.9,3.4-1.9,5.5s3.9,4.7,2.8,7.8c-2.4,5.4-16.7,6.1-18.4,9.7-2.5,5.2,2.2,12.6-.5,18H24.2c-.5-5.5.7-12.2,0-17.5Z" style="fill: gray;"/>
</svg>